<svg width="538" height="90" viewBox="0 0 538 90" fill="none" xmlns="http://www.w3.org/2000/svg">
<path d="M367.21 18.7502V71.2502C367.207 71.4484 367.128 71.6376 366.987 71.7777C366.847 71.9178 366.658 71.9977 366.46 72.0002H361C359.747 72.0012 358.513 71.6877 357.413 71.0885C356.312 70.4892 355.379 69.6234 354.7 68.5702L329.92 30.2702L330.77 49.4002V71.2502C330.767 71.4484 330.688 71.6376 330.547 71.7777C330.407 71.9178 330.218 71.9977 330.02 72.0002H322.8C322.602 71.9977 322.413 71.9178 322.273 71.7777C322.132 71.6376 322.053 71.4484 322.05 71.2502V18.7502C322.053 18.5521 322.132 18.3629 322.273 18.2228C322.413 18.0827 322.602 18.0028 322.8 18.0002H328.23C329.482 18.0009 330.714 18.3141 331.814 18.9113C332.914 19.5085 333.847 20.3709 334.53 21.4202L359.31 59.6602L358.54 40.6002V18.7502C358.54 18.5513 358.619 18.3606 358.76 18.2199C358.9 18.0793 359.091 18.0002 359.29 18.0002H366.51C366.699 18.0152 366.876 18.1005 367.006 18.2393C367.135 18.3781 367.208 18.5604 367.21 18.7502Z" fill="black"/>
<path d="M441 72.0002H433.36C433.241 71.9991 433.123 71.9695 433.018 71.9138C432.912 71.8582 432.821 71.7781 432.753 71.6803C432.684 71.5825 432.64 71.4698 432.624 71.3515C432.608 71.2332 432.62 71.1128 432.66 71.0002L452.9 18.7202C452.987 18.5013 453.139 18.3146 453.336 18.1857C453.533 18.0568 453.765 17.992 454 18.0002H463.57C463.797 18.0022 464.018 18.0717 464.205 18.2C464.392 18.3282 464.536 18.5094 464.62 18.7202L484.8 71.0002C484.84 71.1128 484.852 71.2332 484.836 71.3515C484.82 71.4698 484.776 71.5825 484.707 71.6803C484.639 71.7781 484.548 71.8582 484.442 71.9138C484.337 71.9695 484.219 71.9991 484.1 72.0002H476.46C476.307 72.0009 476.158 71.9555 476.031 71.8698C475.904 71.7842 475.806 71.6623 475.75 71.5202L459.44 28.5202C459.387 28.3754 459.292 28.2503 459.165 28.1619C459.039 28.0735 458.889 28.0261 458.735 28.0261C458.581 28.0261 458.431 28.0735 458.305 28.1619C458.178 28.2503 458.083 28.3754 458.03 28.5202L441.72 71.5202C441.663 71.664 441.564 71.7869 441.435 71.8727C441.306 71.9585 441.155 72.0029 441 72.0002Z" fill="black"/>
<path d="M537.84 70.7902L522.66 51.4002C531.23 49.7802 536.24 44.0002 536.24 35.1302C536.24 24.9402 529.61 18.0002 517.88 18.0002H496.71C496.413 18.0002 496.128 18.1182 495.918 18.3283C495.708 18.5383 495.59 18.8232 495.59 19.1202C495.59 20.0658 495.776 21.002 496.138 21.8756C496.5 22.7491 497.03 23.5428 497.699 24.2114C498.367 24.88 499.161 25.4103 500.035 25.7722C500.908 26.134 501.844 26.3202 502.79 26.3202H517C524.09 26.3202 527.49 29.9502 527.49 35.1902C527.49 40.4302 524.17 44.1902 517 44.1902H496.71C496.412 44.1929 496.127 44.3131 495.917 44.5247C495.708 44.7364 495.59 45.0223 495.59 45.3202V71.3202C495.59 71.5192 495.669 71.7099 495.81 71.8506C495.95 71.9912 496.141 72.0702 496.34 72.0702H503.56C503.758 72.0677 503.947 71.9878 504.087 71.8477C504.228 71.7076 504.307 71.5184 504.31 71.3202V51.8702H512.64L525.81 69.0602C526.515 69.9801 527.424 70.7242 528.465 71.2343C529.506 71.7443 530.651 72.0065 531.81 72.0002H537.29C537.427 71.9927 537.559 71.9478 537.672 71.8705C537.785 71.7932 537.875 71.6864 537.931 71.5617C537.988 71.4371 538.009 71.2993 537.993 71.1633C537.977 71.0273 537.924 70.8983 537.84 70.7902Z" fill="black"/>
<path d="M418.17 18.0002H384.67C384.405 18.0002 384.15 18.1056 383.963 18.2931C383.775 18.4807 383.67 18.735 383.67 19.0002C383.67 20.9443 384.442 22.8087 385.817 24.1833C387.192 25.558 389.056 26.3302 391 26.3302H418.17C418.269 26.3316 418.367 26.3131 418.459 26.2759C418.55 26.2387 418.633 26.1835 418.703 26.1136C418.773 26.0437 418.828 25.9604 418.866 25.8688C418.903 25.7772 418.921 25.6791 418.92 25.5802V18.7502C418.92 18.5513 418.841 18.3606 418.7 18.2199C418.56 18.0793 418.369 18.0002 418.17 18.0002ZM418.17 63.6702H393.17C392.972 63.6677 392.783 63.5878 392.643 63.4477C392.502 63.3076 392.423 63.1184 392.42 62.9202V49.3802C392.42 49.1813 392.499 48.9906 392.64 48.8499C392.78 48.7093 392.971 48.6302 393.17 48.6302H416.28C416.479 48.6302 416.67 48.5512 416.81 48.4106C416.951 48.2699 417.03 48.0792 417.03 47.8802V41.0002C417.03 40.8013 416.951 40.6106 416.81 40.4699C416.67 40.3293 416.479 40.2502 416.28 40.2502H384.79C384.492 40.2529 384.207 40.3731 383.997 40.5847C383.788 40.7964 383.67 41.0823 383.67 41.3802V70.8402C383.67 71.1373 383.788 71.4222 383.998 71.6322C384.208 71.8422 384.493 71.9602 384.79 71.9602H418.17C418.369 71.9602 418.56 71.8812 418.7 71.7406C418.841 71.5999 418.92 71.4092 418.92 71.2102V64.3802C418.912 64.1875 418.829 64.0054 418.689 63.8728C418.549 63.7402 418.363 63.6675 418.17 63.6702Z" fill="black"/>
<path d="M268.24 4.57019L249.42 32.5002C249.115 32.9033 248.974 33.407 249.025 33.9098C249.077 34.4127 249.316 34.8775 249.697 35.2107C250.077 35.5439 250.569 35.7209 251.074 35.7059C251.579 35.691 252.06 35.4853 252.42 35.1302L270.94 19.1302C271.047 19.0323 271.18 18.9678 271.323 18.9449C271.466 18.922 271.613 18.9415 271.745 19.0012C271.877 19.0608 271.988 19.1579 272.066 19.2804C272.143 19.4028 272.183 19.5453 272.18 19.6902V69.9802C272.178 70.1329 272.13 70.2815 272.042 70.4061C271.954 70.5307 271.83 70.6255 271.686 70.6776C271.543 70.7298 271.387 70.737 271.239 70.6981C271.092 70.6592 270.959 70.5762 270.86 70.4602L214.86 3.46019C213.966 2.38456 212.848 1.51751 211.583 0.919808C210.319 0.322109 208.939 0.00823404 207.54 0.000187712H205.59C203.047 0.000187712 200.607 1.01056 198.809 2.80903C197.01 4.60751 196 7.04676 196 9.59019V80.4102C196 82.9536 197.01 85.3929 198.809 87.1913C200.607 88.9898 203.047 90.0002 205.59 90.0002C207.229 90 208.84 89.5798 210.271 88.7798C211.701 87.9798 212.902 86.8265 213.76 85.4302L232.58 57.5002C232.885 57.0971 233.026 56.5934 232.975 56.0905C232.923 55.5877 232.684 55.1229 232.303 54.7897C231.923 54.4564 231.431 54.2795 230.926 54.2944C230.421 54.3094 229.94 54.5151 229.58 54.8702L211.06 70.8702C210.953 70.9681 210.82 71.0325 210.677 71.0555C210.534 71.0784 210.387 71.0588 210.255 70.9992C210.123 70.9396 210.012 70.8425 209.934 70.72C209.857 70.5975 209.817 70.455 209.82 70.3102V20.0702C209.822 19.9175 209.87 19.7689 209.958 19.6443C210.046 19.5197 210.17 19.4249 210.314 19.3727C210.457 19.3206 210.613 19.3134 210.761 19.3523C210.908 19.3911 211.041 19.4741 211.14 19.5902L267.14 86.5902C268.041 87.6561 269.163 88.5126 270.429 89.0999C271.695 89.6871 273.074 89.991 274.47 89.9902H276.47C277.729 89.9902 278.976 89.7421 280.14 89.2602C281.303 88.7783 282.361 88.0719 283.251 87.1813C284.142 86.2908 284.848 85.2336 285.33 84.0701C285.812 82.9066 286.06 81.6596 286.06 80.4002V9.59019C286.06 8.32575 285.81 7.07378 285.324 5.90634C284.839 4.7389 284.127 3.67903 283.23 2.78773C282.333 1.89643 281.269 1.19129 280.098 0.712891C278.928 0.234492 277.674 -0.00772329 276.41 0.000187712C274.771 0.000384321 273.16 0.420549 271.729 1.22059C270.299 2.02062 269.098 3.17384 268.24 4.57019Z" fill="black"/>
<path d="M3.15 63V30.6H15.885C17.94 30.6 19.665 31.02 21.06 31.86C22.455 32.7 23.505 33.7875 24.21 35.1225C24.915 36.4425 25.2675 37.8375 25.2675 39.3075C25.2675 41.0925 24.825 42.6225 23.94 43.8975C23.07 45.1725 21.8925 46.0425 20.4075 46.5075L20.3625 45.405C22.4325 45.915 24.0225 46.9125 25.1325 48.3975C26.2425 49.8675 26.7975 51.585 26.7975 53.55C26.7975 55.455 26.415 57.1125 25.65 58.5225C24.9 59.9325 23.7975 61.035 22.3425 61.83C20.9025 62.61 19.155 63 17.1 63H3.15ZM7.92 58.5225H16.38C17.445 58.5225 18.3975 58.32 19.2375 57.915C20.0925 57.51 20.76 56.9325 21.24 56.1825C21.735 55.4175 21.9825 54.51 21.9825 53.46C21.9825 52.485 21.765 51.6075 21.33 50.8275C20.91 50.0325 20.295 49.41 19.485 48.96C18.69 48.495 17.7525 48.2625 16.6725 48.2625H7.92V58.5225ZM7.92 43.83H15.8175C16.6875 43.83 17.4675 43.6575 18.1575 43.3125C18.8625 42.9525 19.4175 42.4425 19.8225 41.7825C20.2425 41.1075 20.4525 40.2975 20.4525 39.3525C20.4525 38.0925 20.0325 37.0575 19.1925 36.2475C18.3525 35.4375 17.2275 35.0325 15.8175 35.0325H7.92V43.83ZM40.4325 63.6525C38.7525 63.6525 37.3425 63.3825 36.2025 62.8425C35.0625 62.3025 34.1325 61.5975 33.4125 60.7275C32.7075 59.8425 32.1675 58.8825 31.7925 57.8475C31.4175 56.8125 31.1625 55.8 31.0275 54.81C30.8925 53.82 30.825 52.95 30.825 52.2V38.7H35.595V50.6475C35.595 51.5925 35.67 52.5675 35.82 53.5725C35.985 54.5625 36.285 55.485 36.72 56.34C37.17 57.195 37.7925 57.885 38.5875 58.41C39.3975 58.935 40.4475 59.1975 41.7375 59.1975C42.5775 59.1975 43.3725 59.0625 44.1225 58.7925C44.8725 58.5075 45.525 58.0575 46.08 57.4425C46.65 56.8275 47.0925 56.0175 47.4075 55.0125C47.7375 54.0075 47.9025 52.785 47.9025 51.345L50.8275 52.4475C50.8275 54.6525 50.415 56.6025 49.59 58.2975C48.765 59.9775 47.58 61.29 46.035 62.235C44.49 63.18 42.6225 63.6525 40.4325 63.6525ZM48.465 63V55.98H47.9025V38.7H52.65V63H48.465ZM59.4105 34.7175V30.15H64.113V34.7175H59.4105ZM59.4105 63V38.7H64.113V63H59.4105ZM71.3197 63V29.925H76.0222V63H71.3197ZM96.6839 63C95.1539 63.3 93.6539 63.4275 92.1839 63.3825C90.7139 63.3375 89.4014 63.0525 88.2464 62.5275C87.0914 62.0025 86.2214 61.1775 85.6364 60.0525C85.1114 59.0475 84.8264 58.0275 84.7814 56.9925C84.7514 55.9425 84.7364 54.7575 84.7364 53.4375V31.95H89.4614V53.2125C89.4614 54.1875 89.4689 55.035 89.4839 55.755C89.5139 56.475 89.6714 57.0825 89.9564 57.5775C90.4964 58.5075 91.3514 59.04 92.5214 59.175C93.7064 59.295 95.0939 59.2425 96.6839 59.0175V63ZM80.0789 42.48V38.7H96.6839V42.48H80.0789ZM121.369 63.675C118.939 63.675 116.831 63.1275 115.046 62.0325C113.261 60.9375 111.881 59.43 110.906 57.51C109.946 55.575 109.466 53.3475 109.466 50.8275C109.466 48.2925 109.961 46.065 110.951 44.145C111.941 42.21 113.329 40.71 115.114 39.645C116.899 38.565 118.984 38.025 121.369 38.025C123.799 38.025 125.906 38.5725 127.691 39.6675C129.476 40.7625 130.856 42.27 131.831 44.19C132.806 46.11 133.294 48.3225 133.294 50.8275C133.294 53.3625 132.799 55.5975 131.809 57.5325C130.834 59.4525 129.454 60.96 127.669 62.055C125.884 63.135 123.784 63.675 121.369 63.675ZM121.369 59.2425C123.694 59.2425 125.426 58.4625 126.566 56.9025C127.721 55.3275 128.299 53.3025 128.299 50.8275C128.299 48.2925 127.714 46.2675 126.544 44.7525C125.389 43.2225 123.664 42.4575 121.369 42.4575C119.794 42.4575 118.496 42.8175 117.476 43.5375C116.456 44.2425 115.699 45.225 115.204 46.485C114.709 47.73 114.461 49.1775 114.461 50.8275C114.461 53.3775 115.046 55.4175 116.216 56.9475C117.386 58.4775 119.104 59.2425 121.369 59.2425ZM155.293 63V51.0525C155.293 50.1075 155.21 49.14 155.045 48.15C154.895 47.145 154.595 46.215 154.145 45.36C153.71 44.505 153.088 43.815 152.278 43.29C151.483 42.765 150.44 42.5025 149.15 42.5025C148.31 42.5025 147.515 42.645 146.765 42.93C146.015 43.2 145.355 43.6425 144.785 44.2575C144.23 44.8725 143.788 45.6825 143.458 46.6875C143.143 47.6925 142.985 48.915 142.985 50.355L140.06 49.2525C140.06 47.0475 140.473 45.105 141.298 43.425C142.123 41.73 143.308 40.41 144.853 39.465C146.398 38.52 148.265 38.0475 150.455 38.0475C152.135 38.0475 153.545 38.3175 154.685 38.8575C155.825 39.3975 156.748 40.11 157.453 40.995C158.173 41.865 158.72 42.8175 159.095 43.8525C159.47 44.8875 159.725 45.9 159.86 46.89C159.995 47.88 160.063 48.75 160.063 49.5V63H155.293ZM138.215 63V38.7H142.423V45.72H142.985V63H138.215Z" fill="black"/>
</svg>
