<svg width="50" height="50" viewBox="0 0 50 50" fill="none" xmlns="http://www.w3.org/2000/svg">
<path fill-rule="evenodd" clip-rule="evenodd" d="M25 0C11.1929 0 0 11.1929 0 25C0 38.8071 11.1929 50 25 50C38.8071 50 50 38.8071 50 25C50 11.1929 38.8071 0 25 0ZM15.5262 10.8333H35.3071C36.9752 10.8333 38.3333 12.175 38.3333 13.8375V40L35.1595 37.2292L33.3733 35.5958L31.4838 33.8604L32.2662 36.5583H15.5262C13.8581 36.5583 12.5 35.2167 12.5 33.5542V13.8375C12.5 12.175 13.8581 10.8333 15.5262 10.8333Z" fill="black"/>
<path fill-rule="evenodd" clip-rule="evenodd" d="M29.609 29.8793C29.609 29.8793 29.0776 29.2522 28.6348 28.698C30.5686 28.1584 31.3067 26.9626 31.3067 26.9626C30.7014 27.3564 30.1257 27.6334 29.609 27.823C28.871 28.1293 28.1624 28.3334 27.4686 28.4501C26.0514 28.7126 24.7524 28.6397 23.6452 28.4355C22.8038 28.2751 22.0805 28.0418 21.4752 27.8084C21.1357 27.6772 20.7667 27.5168 20.3976 27.3126C20.3755 27.298 20.3533 27.2871 20.3312 27.2762L20.3312 27.2761L20.3312 27.2761C20.309 27.2652 20.2869 27.2543 20.2648 27.2397C20.2352 27.2251 20.2205 27.2105 20.2057 27.1959C19.94 27.0501 19.7924 26.948 19.7924 26.948C19.7924 26.948 20.501 28.1147 22.3757 28.6689C21.9329 29.223 21.3867 29.8793 21.3867 29.8793C18.1243 29.7772 16.8843 27.6626 16.8843 27.6626C16.8843 22.9668 19.01 19.1605 19.01 19.1605C21.1357 17.5855 23.1581 17.6293 23.1581 17.6293L23.3057 17.8043C20.6486 18.5626 19.4233 19.7147 19.4233 19.7147C19.4233 19.7147 19.7481 19.5397 20.2943 19.2918C21.8738 18.6064 23.1286 18.4168 23.6452 18.373L23.6783 18.3675C23.7528 18.355 23.8189 18.3439 23.8962 18.3439C24.7967 18.2272 25.8152 18.198 26.8781 18.3147C28.2805 18.4751 29.7862 18.8834 31.3214 19.7147C31.3214 19.7147 30.1552 18.6209 27.6457 17.8626L27.8524 17.6293C27.8524 17.6293 29.8748 17.5855 32.0005 19.1605C32.0005 19.1605 34.1262 22.9668 34.1262 27.6626C34.1262 27.6626 32.8714 29.7772 29.609 29.8793ZM23.1605 23.3334C22.3257 23.3334 21.6667 24.0842 21.6667 25.0001C21.6667 25.916 22.3404 26.6668 23.1605 26.6668C23.9953 26.6668 24.6544 25.916 24.6544 25.0001C24.669 24.0842 23.9953 23.3334 23.1605 23.3334ZM27.0123 25.0001C27.0123 24.0842 27.6714 23.3334 28.5062 23.3334C29.3409 23.3334 30 24.0842 30 25.0001C30 25.916 29.3409 26.6668 28.5062 26.6668C27.686 26.6668 27.0123 25.916 27.0123 25.0001Z" fill="black"/>
</svg>
