<svg width="50" height="50" viewBox="0 0 50 50" fill="none" xmlns="http://www.w3.org/2000/svg">
<path d="M25.045 0.1875C11.2653 0.1875 0.0913219 11.5499 0.0913219 25.5672C0.0913219 36.7809 7.24132 46.2944 17.1562 49.6504C18.4033 49.8853 18.8612 49.0998 18.8612 48.4295C18.8612 47.8243 18.838 45.825 18.8273 43.7042C11.8851 45.2395 10.4202 40.7097 10.4202 40.7097C9.28512 37.7761 7.64959 36.996 7.64959 36.996C5.38554 35.4208 7.82025 35.4532 7.82025 35.4532C10.326 35.6318 11.6455 38.0686 11.6455 38.0686C13.8711 41.9487 17.4831 40.8269 18.907 40.1784C19.131 38.5385 19.7777 37.418 20.4913 36.7846C14.9488 36.1429 9.12231 33.9666 9.12231 24.2417C9.12231 21.4707 10.0971 19.2066 11.6934 17.4293C11.4343 16.7896 10.5802 14.2086 11.9351 10.7127C11.9351 10.7127 14.0306 10.0306 18.7992 13.3143C20.7897 12.7519 22.9244 12.4699 25.045 12.4602C27.1657 12.4699 29.3021 12.7519 31.2963 13.3143C36.0591 10.0306 38.1517 10.7127 38.1517 10.7127C39.5099 14.2086 38.6554 16.7896 38.3963 17.4293C39.9963 19.2066 40.9645 21.4707 40.9645 24.2417C40.9645 33.9897 35.1269 36.1361 29.5702 36.7645C30.4653 37.5521 31.2628 39.0966 31.2628 41.4645C31.2628 44.86 31.2339 47.5931 31.2339 48.4295C31.2339 49.1049 31.6831 49.8963 32.9479 49.647C42.8574 46.2873 49.9984 36.7771 49.9984 25.5672C49.9984 11.5499 38.826 0.1875 25.045 0.1875" fill="black"/>
<path d="M9.54256 36.6275C9.4876 36.7541 9.29256 36.7915 9.11487 36.7049C8.93388 36.6221 8.83223 36.4502 8.89091 36.3237C8.94463 36.1938 9.14008 36.1581 9.32066 36.2442C9.50206 36.3275 9.60537 36.501 9.54256 36.6275" fill="black"/>
<path d="M10.5533 37.7741C10.4343 37.8863 10.2017 37.8342 10.0438 37.6568C9.88058 37.4799 9.85 37.2432 9.97066 37.1293C10.0934 37.0171 10.319 37.0697 10.4826 37.2466C10.6459 37.4256 10.6777 37.6606 10.5533 37.7741" fill="black"/>
<path d="M11.5372 39.2358C11.3843 39.3438 11.1343 39.2426 10.9798 39.0169C10.8269 38.7912 10.8269 38.5205 10.9831 38.4121C11.138 38.3036 11.3843 38.4011 11.5409 38.6252C11.6934 38.8542 11.6934 39.1253 11.5372 39.2358" fill="black"/>
<path d="M12.8851 40.648C12.7483 40.8014 12.457 40.7602 12.2438 40.5509C12.0256 40.3462 11.9649 40.0558 12.1021 39.9024C12.2405 39.7486 12.5335 39.7918 12.7483 39.9995C12.9649 40.2037 13.031 40.4962 12.8851 40.648" fill="black"/>
<path d="M14.7446 41.4679C14.6843 41.6667 14.4037 41.7571 14.1211 41.6726C13.8388 41.5856 13.6541 41.3528 13.7112 41.1519C13.7698 40.9518 14.0517 40.8577 14.3364 40.948C14.6182 41.0346 14.8033 41.2658 14.7446 41.4679" fill="black"/>
<path d="M16.7868 41.6199C16.7938 41.8292 16.5541 42.0028 16.2574 42.0062C15.9591 42.0133 15.7178 41.8439 15.7145 41.638C15.7145 41.4266 15.9488 41.2547 16.2471 41.2497C16.5438 41.2438 16.7868 41.4119 16.7868 41.6199" fill="black"/>
<path d="M18.6872 41.2909C18.7227 41.4952 18.5165 41.7049 18.2219 41.7604C17.9322 41.8146 17.664 41.6885 17.6273 41.4859C17.5913 41.2766 17.8012 41.0669 18.0905 41.0127C18.3855 40.9606 18.6496 41.0833 18.6872 41.2909" fill="black"/>
</svg>
