<svg width="350" height="350" viewBox="0 0 350 350" fill="none" xmlns="http://www.w3.org/2000/svg">
<rect x="140" y="122.5" width="35" height="35" transform="rotate(90 140 122.5)" fill="black"/>
<rect x="140" y="52.5" width="35" height="35" transform="rotate(90 140 52.5)" fill="#009CE0"/>
<rect x="140" y="87.5" width="35" height="35" transform="rotate(90 140 87.5)" fill="black"/>
<rect x="140" y="157.5" width="35" height="35" transform="rotate(90 140 157.5)" fill="black"/>
<rect x="280" y="122.5" width="35" height="35" transform="rotate(90 280 122.5)" fill="white"/>
<rect x="280" y="52.5" width="35" height="35" transform="rotate(90 280 52.5)" fill="black"/>
<rect x="280" y="87.5" width="35" height="35" transform="rotate(90 280 87.5)" fill="#0263B1"/>
<rect x="280" y="157.5" width="35" height="35" transform="rotate(90 280 157.5)" fill="white"/>
<rect x="105" y="262.5" width="35" height="35" transform="rotate(90 105 262.5)" fill="black"/>
<rect x="105" y="122.5" width="35" height="35" transform="rotate(90 105 122.5)" fill="#029CDF"/>
<rect x="105" y="192.5" width="35" height="35" transform="rotate(90 105 192.5)" fill="black"/>
<rect x="105" y="52.5" width="35" height="35" transform="rotate(90 105 52.5)" fill="black"/>
<rect x="105" y="227.5" width="35" height="35" transform="rotate(90 105 227.5)" fill="#0276A8"/>
<rect x="105" y="87.5" width="35" height="35" transform="rotate(90 105 87.5)" fill="#029CDF"/>
<rect x="140" y="87.5" width="35" height="35" transform="rotate(90 140 87.5)" fill="#029CDF"/>
<rect x="105" y="157.5" width="35" height="35" transform="rotate(90 105 157.5)" fill="black"/>
<rect x="245" y="262.5" width="35" height="35" transform="rotate(90 245 262.5)" fill="black"/>
<rect x="245" y="122.5" width="35" height="35" transform="rotate(90 245 122.5)" fill="black"/>
<rect x="245" y="52.5" width="35" height="35" transform="rotate(90 245 52.5)" fill="#0062B1"/>
<rect x="245" y="227.5" width="35" height="35" transform="rotate(90 245 227.5)" fill="#029CDF"/>
<rect x="245" y="87.5" width="35" height="35" transform="rotate(90 245 87.5)" fill="#049CDE"/>
<rect x="245" y="157.5" width="35" height="35" transform="rotate(90 245 157.5)" fill="white"/>
<rect x="70" y="262.5" width="35" height="35" transform="rotate(90 70 262.5)" fill="#009CE0"/>
<rect x="70" y="122.5" width="35" height="35" transform="rotate(90 70 122.5)" fill="#029CDF"/>
<rect x="70" y="192.5" width="35" height="35" transform="rotate(90 70 192.5)" fill="#029CDF"/>
<rect x="70" y="52.5" width="35" height="35" transform="rotate(90 70 52.5)" fill="black"/>
<rect x="35" y="87.5" width="35" height="35" transform="rotate(90 35 87.5)" fill="black"/>
<rect x="35" y="52.5" width="35" height="35" transform="rotate(90 35 52.5)" fill="black"/>
<rect x="35" y="297.5" width="35" height="35" transform="rotate(90 35 297.5)" fill="black"/>
<rect x="35" y="262.5" width="35" height="35" transform="rotate(90 35 262.5)" fill="black"/>
<rect x="35" y="227.5" width="35" height="35" transform="rotate(90 35 227.5)" fill="black"/>
<rect x="35" y="192.5" width="35" height="35" transform="rotate(90 35 192.5)" fill="black"/>
<rect x="35" y="157.5" width="35" height="35" transform="rotate(90 35 157.5)" fill="black"/>
<rect x="35" y="122.5" width="35" height="35" transform="rotate(90 35 122.5)" fill="black"/>
<rect x="35" y="87.5" width="35" height="35" transform="rotate(90 35 87.5)" fill="black"/>
<rect x="35" y="52.5" width="35" height="35" transform="rotate(90 35 52.5)" fill="black"/>
<rect x="35" y="297.5" width="35" height="35" transform="rotate(90 35 297.5)" fill="black"/>
<rect x="35" y="262.5" width="35" height="35" transform="rotate(90 35 262.5)" fill="black"/>
<rect x="35" y="227.5" width="35" height="35" transform="rotate(90 35 227.5)" fill="black"/>
<rect x="35" y="192.5" width="35" height="35" transform="rotate(90 35 192.5)" fill="black"/>
<rect x="35" y="157.5" width="35" height="35" transform="rotate(90 35 157.5)" fill="black"/>
<rect x="35" y="122.5" width="35" height="35" transform="rotate(90 35 122.5)" fill="black"/>
<rect x="70" y="227.5" width="35" height="35" transform="rotate(90 70 227.5)" fill="#009CE0"/>
<rect x="70" y="87.5" width="35" height="35" transform="rotate(90 70 87.5)" fill="black"/>
<rect x="70" y="157.5" width="35" height="35" transform="rotate(90 70 157.5)" fill="#029CDF"/>
<rect x="105" y="157.5" width="35" height="35" transform="rotate(90 105 157.5)" fill="#029CDF"/>
<rect x="105" y="192.5" width="35" height="35" transform="rotate(90 105 192.5)" fill="#029CDF"/>
<rect x="140" y="262.5" width="35" height="35" transform="rotate(90 140 262.5)" fill="#029CDF"/>
<rect x="140" y="227.5" width="35" height="35" transform="rotate(90 140 227.5)" fill="#029CDF"/>
<rect x="175" y="227.5" width="35" height="35" transform="rotate(90 175 227.5)" fill="#029CDF"/>
<rect x="210" y="192.5" width="35" height="35" transform="rotate(90 210 192.5)" fill="#029CDF"/>
<rect x="245" y="192.5" width="35" height="35" transform="rotate(90 245 192.5)" fill="#029CDF"/>
<rect x="140" y="192.5" width="35" height="35" transform="rotate(90 140 192.5)" fill="#029CDF"/>
<rect x="175" y="192.5" width="35" height="35" transform="rotate(90 175 192.5)" fill="#029CDF"/>
<rect x="175" y="262.5" width="35" height="35" transform="rotate(90 175 262.5)" fill="#029CDF"/>
<rect x="210" y="262.5" width="35" height="35" transform="rotate(90 210 262.5)" fill="black"/>
<rect x="315" y="297.5" width="35" height="35" transform="rotate(90 315 297.5)" fill="black"/>
<rect x="280" y="297.5" width="35" height="35" transform="rotate(90 280 297.5)" fill="black"/>
<rect x="245" y="297.5" width="35" height="35" transform="rotate(90 245 297.5)" fill="black"/>
<rect x="210" y="297.5" width="35" height="35" transform="rotate(90 210 297.5)" fill="black"/>
<rect x="175" y="297.5" width="35" height="35" transform="rotate(90 175 297.5)" fill="black"/>
<rect x="140" y="297.5" width="35" height="35" transform="rotate(90 140 297.5)" fill="black"/>
<rect x="105" y="297.5" width="35" height="35" transform="rotate(90 105 297.5)" fill="black"/>
<rect x="70" y="297.5" width="35" height="35" transform="rotate(90 70 297.5)" fill="black"/>
<rect x="35" y="17.5" width="35" height="35" transform="rotate(90 35 17.5)" fill="black"/>
<rect x="35" y="17.5" width="35" height="35" transform="rotate(90 35 17.5)" fill="black"/>
<rect x="315" y="17.5" width="35" height="35" transform="rotate(90 315 17.5)" fill="black"/>
<rect x="280" y="17.5" width="35" height="35" transform="rotate(90 280 17.5)" fill="black"/>
<rect x="245" y="17.5" width="35" height="35" transform="rotate(90 245 17.5)" fill="black"/>
<rect x="210" y="17.5" width="35" height="35" transform="rotate(90 210 17.5)" fill="black"/>
<rect x="175" y="17.5" width="35" height="35" transform="rotate(90 175 17.5)" fill="black"/>
<rect x="140" y="17.5" width="35" height="35" transform="rotate(90 140 17.5)" fill="black"/>
<rect x="105" y="17.5" width="35" height="35" transform="rotate(90 105 17.5)" fill="black"/>
<rect x="70" y="17.5" width="35" height="35" transform="rotate(90 70 17.5)" fill="black"/>
<rect x="350" y="52.5" width="35" height="35" transform="rotate(-180 350 52.5)" fill="black"/>
<rect x="350" y="332.5" width="35" height="35" transform="rotate(-180 350 332.5)" fill="black"/>
<path d="M35 332.5L35 350L0 350L1.5299e-06 332.5L35 332.5Z" fill="black"/>
<path d="M35 332.5L35 350L0 350L1.5299e-06 332.5L35 332.5Z" fill="black"/>
<path d="M315 332.5V350L280 350V332.5L315 332.5Z" fill="black"/>
<path d="M280 332.5V350H245V332.5H280Z" fill="black"/>
<path d="M245 332.5V350H210V332.5H245Z" fill="black"/>
<path d="M210 332.5V350H175V332.5H210Z" fill="black"/>
<path d="M175 332.5V350H140V332.5H175Z" fill="black"/>
<path d="M140 332.5V350H105V332.5H140Z" fill="black"/>
<path d="M105 332.5V350H70V332.5H105Z" fill="black"/>
<path d="M70 332.5V350L35 350L35 332.5L70 332.5Z" fill="black"/>
<path d="M350 350H315V332.5H350V350Z" fill="black"/>
<path d="M35 7.64949e-07L35 17.5L0 17.5L1.5299e-06 0L35 7.64949e-07Z" fill="black"/>
<path d="M35 7.64949e-07L35 17.5L0 17.5L1.5299e-06 0L35 7.64949e-07Z" fill="black"/>
<path d="M315 7.64949e-07V17.5L280 17.5V0L315 7.64949e-07Z" fill="black"/>
<path d="M280 0V17.5H245V0H280Z" fill="black"/>
<path d="M245 0V17.5H210V0H245Z" fill="black"/>
<path d="M210 0V17.5H175V0H210Z" fill="black"/>
<path d="M175 0V17.5H140V0H175Z" fill="black"/>
<path d="M140 0V17.5H105V0H140Z" fill="black"/>
<path d="M105 0V17.5H70V0H105Z" fill="black"/>
<path d="M70 0V17.5L35 17.5L35 7.64949e-07L70 0Z" fill="black"/>
<path d="M350 17.5H315V7.64949e-07H350V17.5Z" fill="black"/>
<rect x="350" y="297.5" width="35" height="35" transform="rotate(-180 350 297.5)" fill="black"/>
<rect x="350" y="262.5" width="35" height="35" transform="rotate(-180 350 262.5)" fill="black"/>
<rect x="350" y="227.5" width="35" height="35" transform="rotate(-180 350 227.5)" fill="black"/>
<rect x="350" y="192.5" width="35" height="35" transform="rotate(-180 350 192.5)" fill="black"/>
<rect x="350" y="157.5" width="35" height="35" transform="rotate(-180 350 157.5)" fill="black"/>
<rect x="350" y="122.5" width="35" height="35" transform="rotate(-180 350 122.5)" fill="black"/>
<rect x="350" y="87.5" width="35" height="35" transform="rotate(-180 350 87.5)" fill="black"/>
<rect x="210" y="52.5" width="35" height="35" transform="rotate(90 210 52.5)" fill="#029CDF"/>
<rect x="210" y="227.5" width="35" height="35" transform="rotate(90 210 227.5)" fill="#029CDF"/>
<rect x="210" y="122.5" width="35" height="35" transform="rotate(90 210 122.5)" fill="#029CDF"/>
<rect x="210" y="157.5" width="35" height="35" transform="rotate(90 210 157.5)" fill="#029CDF"/>
<rect x="280" y="227.5" width="35" height="35" transform="rotate(90 280 227.5)" fill="#0062B1"/>
<rect x="280" y="262.5" width="35" height="35" transform="rotate(90 280 262.5)" fill="#0263B1"/>
<rect x="280" y="192.5" width="35" height="35" transform="rotate(90 280 192.5)" fill="#0062B1"/>
<rect x="315" y="227.5" width="35" height="35" transform="rotate(90 315 227.5)" fill="#0062B1"/>
<rect x="315" y="262.5" width="35" height="35" transform="rotate(90 315 262.5)" fill="#0263B1"/>
<rect x="315" y="192.5" width="35" height="35" transform="rotate(90 315 192.5)" fill="#0062B1"/>
<rect x="210" y="87.5" width="35" height="35" transform="rotate(90 210 87.5)" fill="#0276A8"/>
<rect x="175" y="122.5" width="35" height="35" transform="rotate(90 175 122.5)" fill="#FEFEFE"/>
<rect x="175" y="52.5" width="35" height="35" transform="rotate(90 175 52.5)" fill="#029CDF"/>
<rect x="175" y="87.5" width="35" height="35" transform="rotate(90 175 87.5)" fill="#0276A8"/>
<rect x="175" y="157.5" width="35" height="35" transform="rotate(90 175 157.5)" fill="#FEFEFE"/>
<rect x="140" y="157.5" width="35" height="35" transform="rotate(90 140 157.5)" fill="#FEFEFE"/>
<rect x="315" y="122.5" width="35" height="35" transform="rotate(90 315 122.5)" fill="#0263B1"/>
<rect x="315" y="52.5" width="35" height="35" transform="rotate(90 315 52.5)" fill="black"/>
<rect x="315" y="87.5" width="35" height="35" transform="rotate(90 315 87.5)" fill="black"/>
<rect x="315" y="157.5" width="35" height="35" transform="rotate(90 315 157.5)" fill="#0263B1"/>
</svg>
